<svg width="24" height="24" viewBox="0 0 24 24" fill="none" xmlns="http://www.w3.org/2000/svg">
<path fill-rule="evenodd" clip-rule="evenodd" d="M19.9375 13.5715H7.33092L11.191 18.243C11.5672 18.6972 11.5055 19.3733 11.055 19.7515C10.6035 20.1308 9.93411 20.0687 9.55799 19.6144L4.24544 13.1858C4.204 13.1354 4.18392 13.0765 4.153 13.0208C4.1275 12.9758 4.09674 12.9372 4.07761 12.8879C4.0298 12.7647 4.00112 12.6351 4.00112 12.5044C4.00112 12.5033 4 12.5011 4 12.5001C4 12.499 4.00112 12.4968 4.00112 12.4958C4.00112 12.3651 4.0298 12.2354 4.07761 12.1122C4.09674 12.0629 4.1275 12.0243 4.153 11.9793C4.18392 11.9236 4.204 11.8647 4.24544 11.8143L9.55799 5.38572C9.76943 5.13179 10.0712 5 10.3751 5C10.6152 5 10.8564 5.08143 11.055 5.24858C11.5055 5.62679 11.5672 6.30287 11.191 6.75717L7.33092 11.4286H19.9375C20.524 11.4286 21 11.9086 21 12.5001C21 13.0915 20.524 13.5715 19.9375 13.5715Z" fill="#5C6270"/>
</svg>
