<svg width="18" height="18" viewBox="0 0 18 18" fill="none" xmlns="http://www.w3.org/2000/svg">
<path fill-rule="evenodd" clip-rule="evenodd" d="M14 5.50038H1.00002C0.448021 5.50038 2.08464e-05 5.05338 2.08464e-05 4.50038C2.08464e-05 3.94738 0.448021 3.50038 1.00002 3.50038H14.082L12.524 2.29038C12.088 1.95138 12.009 1.32238 12.348 0.887384C12.687 0.450384 13.316 0.371384 13.751 0.710384L17.613 3.71038C17.86 3.90138 18.002 4.19638 18 4.50938C17.998 4.82038 17.85 5.11338 17.6 5.30038L13.6 8.30038C13.42 8.43538 13.209 8.50038 13.001 8.50038C12.697 8.50038 12.396 8.36238 12.2 8.10038C11.869 7.65838 11.958 7.03138 12.4 6.70038L14 5.50038ZM4.00002 12.5004H17C17.552 12.5004 18 12.9474 18 13.5004C18 14.0534 17.552 14.5004 17 14.5004H3.91802L5.47602 15.7104C5.91202 16.0494 5.99102 16.6784 5.65202 17.1134C5.45502 17.3674 5.16002 17.5004 4.86202 17.5004C4.64702 17.5004 4.43102 17.4324 4.24902 17.2904L0.387021 14.2904C0.140021 14.0994 -0.00197915 13.8044 2.08464e-05 13.4914C0.00202085 13.1804 0.150021 12.8874 0.400021 12.7004L4.40002 9.70038C4.84302 9.36938 5.46902 9.45838 5.80002 9.90038C6.13102 10.3424 6.04202 10.9694 5.60002 11.3004L4.00002 12.5004Z" fill="#5C6270"/>
</svg>
