<svg width="20" height="20" viewBox="0 0 20 20" fill="none" xmlns="http://www.w3.org/2000/svg">
    <path fill-rule="evenodd" clip-rule="evenodd" d="M5.64259 3.33759C5.23771 3.33759 4.88478 3.59849 4.78658 3.97039L4.51249 5.00844H15.4876L15.2135 3.97039C15.1153 3.59849 14.7624 3.33759 14.3575 3.33759H5.64259ZM3.07457 3.56515L2.53163 5.62137C2.51102 5.6922 2.5 5.76682 2.5 5.84386C2.5 6.30524 2.89504 6.67928 3.38235 6.67928H3.87982L4.47308 15.9921C4.56481 17.3094 5.72007 18.3334 7.11439 18.3334H12.8857C14.28 18.3334 15.4353 17.3094 15.527 15.9921L16.1202 6.67928H16.6177C17.1049 6.67928 17.5 6.30524 17.5 5.84386C17.5 5.76809 17.4893 5.69467 17.4694 5.62489L16.9255 3.56515C16.6309 2.44945 15.5722 1.66675 14.3575 1.66675H5.64259C4.42794 1.66675 3.36916 2.44945 3.07457 3.56515ZM14.3517 6.67928H5.64836L6.23396 15.8821C6.26453 16.3212 6.64962 16.6626 7.11439 16.6626H12.8857C13.3504 16.6626 13.7355 16.3212 13.7661 15.8821L14.3517 6.67928ZM8.23529 8.31044C8.72258 8.31044 9.11767 8.68446 9.11767 9.14586V14.1563C9.11767 14.6177 8.72258 14.9917 8.23529 14.9917C7.74798 14.9917 7.35294 14.6177 7.35294 14.1563V9.14586C7.35294 8.68446 7.74798 8.31044 8.23529 8.31044ZM12.6471 9.14586C12.6471 8.68446 12.252 8.31044 11.7647 8.31044C11.2774 8.31044 10.8823 8.68446 10.8823 9.14586V14.1563C10.8823 14.6177 11.2774 14.9917 11.7647 14.9917C12.252 14.9917 12.6471 14.6177 12.6471 14.1563V9.14586Z" fill="#9DA2AE"/>
</svg>
