<svg width="24" height="24" viewBox="0 0 24 24" fill="none" xmlns="http://www.w3.org/2000/svg">
  <path d="M0.967742 19.8465V3.81192L16.0323 1.15347L16.0323 17.1881L0.967742 19.8465Z" fill="#9DA2AE" stroke="#5C6270" stroke-width="1.93548"/>
  <path d="M1 12L16 9.5" stroke="#5C6270" stroke-width="2"/>
  <path d="M17.4839 17.3619V1.37323C17.4839 1.03862 17.8154 0.805007 18.1305 0.917549L23.195 2.7263C23.3876 2.79508 23.5161 2.9775 23.5161 3.18199V19.5324C23.5161 19.8798 23.1609 20.114 22.8417 19.9771L17.7771 17.8066C17.5992 17.7304 17.4839 17.5554 17.4839 17.3619Z" fill="#5C6270" stroke="#5C6270" stroke-width="0.967742"/>
  <path d="M0.483871 20.3294V4.31631C0.483871 3.98987 0.800489 3.7571 1.11207 3.85447L7.17658 5.74963C7.37859 5.81276 7.51613 5.99984 7.51613 6.21147V22.6035C7.51613 22.9414 7.17869 23.1752 6.86236 23.0566L0.797843 20.7824C0.608987 20.7116 0.483871 20.5311 0.483871 20.3294Z" fill="#5C6270" stroke="#5C6270" stroke-width="0.967742"/>
</svg>
