<svg width="28" height="18" viewBox="0 0 28 18" fill="none" xmlns="http://www.w3.org/2000/svg">
	<path d="M28 9.27346C27.7205 10.1321 27.0151 10.6587 26.4097 11.2471C24.6745 12.9332 22.7385 14.3517 20.562 15.4214C18.2191 16.5726 15.7626 17.2217 13.1261 17.0407C11.5664 16.9335 10.0718 16.5535 8.63406 15.9568C5.47367 14.6465 2.81039 12.634 0.5075 10.1282C0.288203 9.88925 0.166797 9.56057 0 9.27346C0 9.09136 0 8.9087 0 8.72659C0.268516 7.88331 0.958125 7.36651 1.55148 6.7912C3.60992 4.79675 5.92047 3.16269 8.58211 2.06183C11.8322 0.717061 15.1244 0.54042 18.4713 1.71128C21.5852 2.80065 24.2145 4.63487 26.5699 6.90167C26.7734 7.09745 26.967 7.30417 27.1655 7.50487C27.5182 7.86143 27.8556 8.22784 28 8.72659C28 8.9087 28 9.09136 28 9.27346ZM2.82187 8.99456C2.8618 9.04214 2.8875 9.07823 2.91867 9.10885C4.56695 10.7544 6.38477 12.1708 8.47984 13.2099C9.93562 13.9317 11.4641 14.4278 13.0884 14.5667C15.0626 14.7351 16.9449 14.3397 18.7573 13.5621C20.5144 12.8085 22.0855 11.7607 23.5402 10.5335C24.1084 10.0544 24.6411 9.53323 25.2038 9.01917C23.3302 7.11222 21.2702 5.56073 18.812 4.46862C20.4225 7.1155 19.6952 10.0746 17.9435 11.7092C16.0765 13.4516 13.3087 13.7967 11.1918 12.5531C9.78852 11.7289 8.85828 10.5411 8.46398 8.95628C8.07297 7.38401 8.33602 5.90308 9.20172 4.46042C6.72492 5.56948 4.66375 7.1155 2.82187 8.99456ZM15.8288 5.95393C15.8304 6.56042 16.2602 7.21612 16.8197 7.43925C17.4114 7.6755 17.9555 7.36761 18.0556 6.73925C18.1535 6.12565 17.8325 5.43276 17.2938 5.10409C16.9734 4.90886 16.6337 4.82956 16.2881 5.02534C15.9425 5.22058 15.8413 5.55581 15.8288 5.95393Z" fill="#5C6270"/>
</svg>
