<svg width="50" height="5" viewBox="0 0 50 5" fill="none" xmlns="http://www.w3.org/2000/svg">
	<path fill-rule="evenodd" clip-rule="evenodd" d="M0.999999 0L1 5L0 5L-6.07241e-07 1.41593e-07L0.999999 0Z" fill="#5C6270"/>
	<path fill-rule="evenodd" clip-rule="evenodd" d="M6 0L6 3L5 3L5 9.43951e-08L6 0Z" fill="#5C6270"/>
	<path fill-rule="evenodd" clip-rule="evenodd" d="M11 0L11 3L10 3L10 9.43951e-08L11 0Z" fill="#5C6270"/>
	<path fill-rule="evenodd" clip-rule="evenodd" d="M16 0L16 3L15 3L15 9.43951e-08L16 0Z" fill="#5C6270"/>
	<path fill-rule="evenodd" clip-rule="evenodd" d="M21 0L21 3L20 3L20 9.43951e-08L21 0Z" fill="#5C6270"/>
	<path fill-rule="evenodd" clip-rule="evenodd" d="M26 0L26 5L25 5L25 6.74251e-08L26 0Z" fill="#5C6270"/>
	<path fill-rule="evenodd" clip-rule="evenodd" d="M31 0L31 3L30 3L30 9.43951e-08L31 0Z" fill="#5C6270"/>
	<path fill-rule="evenodd" clip-rule="evenodd" d="M36 0L36 3L35 3L35 9.43951e-08L36 0Z" fill="#5C6270"/>
	<path fill-rule="evenodd" clip-rule="evenodd" d="M41 0L41 3L40 3L40 9.43951e-08L41 0Z" fill="#5C6270"/>
	<path fill-rule="evenodd" clip-rule="evenodd" d="M46 0L46 3L45 3L45 9.43951e-08L46 0Z" fill="#5C6270"/>
</svg>
