<svg width="24" height="24" viewBox="0 0 24 24" fill="none" xmlns="http://www.w3.org/2000/svg">
    <path fill-rule="evenodd" clip-rule="evenodd" d="M6.77111 4.00501C6.28525 4.00501 5.86174 4.3181 5.7439 4.76437L5.41499 6.01003H18.5851L18.2562 4.76437C18.1384 4.3181 17.7149 4.00501 17.229 4.00501H6.77111ZM3.68948 4.27809L3.03796 6.74554C3.01322 6.83055 3 6.92008 3 7.01253C3 7.5662 3.47405 8.01504 4.05882 8.01504H4.65578L5.36769 19.1904C5.47777 20.7711 6.86408 22 8.53727 22H15.4628C17.136 22 18.5223 20.7711 18.6324 19.1904L19.3443 8.01504H19.9412C20.5259 8.01504 21 7.5662 21 7.01253C21 6.9216 20.9872 6.8335 20.9633 6.74976L20.3106 4.27809C19.9571 2.93924 18.6866 2 17.229 2H6.77111C5.31353 2 4.04299 2.93924 3.68948 4.27809ZM17.222 8.01504H6.77803L7.48075 19.0584C7.51744 19.5854 7.97954 19.995 8.53727 19.995H15.4628C16.0205 19.995 16.4826 19.5854 16.5193 19.0584L17.222 8.01504ZM9.88235 9.97243C10.4671 9.97243 10.9412 10.4213 10.9412 10.9749V16.9875C10.9412 17.5412 10.4671 17.99 9.88235 17.99C9.29758 17.99 8.82353 17.5412 8.82353 16.9875V10.9749C8.82353 10.4213 9.29758 9.97243 9.88235 9.97243ZM15.1765 10.9749C15.1765 10.4213 14.7024 9.97243 14.1176 9.97243C13.5329 9.97243 13.0588 10.4213 13.0588 10.9749V16.9875C13.0588 17.5412 13.5329 17.99 14.1176 17.99C14.7024 17.99 15.1765 17.5412 15.1765 16.9875V10.9749Z" fill="#23252A"/>
</svg>
